<?xml version="1.0" encoding="utf-8"?>
<!-- Generator: Adobe Illustrator 17.0.0, SVG Export Plug-In . SVG Version: 6.00 Build 0)  -->
<!DOCTYPE svg PUBLIC "-//W3C//DTD SVG 1.1//EN" "http://www.w3.org/Graphics/SVG/1.1/DTD/svg11.dtd">
<svg version="1.1" id="Layer_1" xmlns="http://www.w3.org/2000/svg" xmlns:xlink="http://www.w3.org/1999/xlink" x="0px" y="0px"
	 width="281px" height="281px" viewBox="0 0 281 281" enable-background="new 0 0 281 281" xml:space="preserve">
<g>
	<linearGradient id="COR_2_" gradientUnits="userSpaceOnUse" x1="206.2783" y1="224.5847" x2="99.9066" y2="40.3435">
		<stop  offset="0.4483" style="stop-color:#F2B967"/>
		<stop  offset="0.67" style="stop-color:#F8D795"/>
		<stop  offset="0.9901" style="stop-color:#F2B967"/>
	</linearGradient>
	<path id="COR_1_" fill="url(#COR_2_)" d="M223.043,70.222h-2.569c-5.291,0-10.351,2.172-13.995,6.009l-7.001,10.339l-0.26,0.748
		V74.545c0-5.33-4.321-9.651-9.651-9.651h-50.264h-2.23H86.809c-5.33,0-9.651,4.321-9.651,9.651v12.774l-0.26-0.748l-7.001-10.339
		c-3.644-3.837-8.703-6.009-13.995-6.009h-2.569c-10.66,0-19.301,8.641-19.301,19.301v14.174c0,34.594,75.47,76.703,75.47,76.703
		v6.685v3.567c0,2.361,1.693,4.37,4.021,4.759c2.625,0.439,6.514,0.965,11.437,1.331v11.076v2.563
		c0,5.33-4.373,11.234-11.913,11.234h-2.262h-6.283h-3.82c-0.697,0-1.312,0.304-1.753,0.777h-0.011l0.008,0.004
		c-0.4,0.431-0.657,0.998-0.657,1.632v4.122v12.063c0,0,11.058,11.058,38.804,11.058h2.23c27.746,0,38.804-11.058,38.804-11.058
		v-12.063v-4.122c0-0.634-0.257-1.202-0.657-1.632l0.008-0.004h-0.011c-0.44-0.472-1.056-0.777-1.753-0.777h-3.82h-6.283h-2.262
		c-7.54,0-11.913-5.904-11.913-11.234v-2.563v-11.076c4.923-0.366,8.811-0.892,11.437-1.331c2.328-0.39,4.021-2.399,4.021-4.759
		v-3.567v-6.685c0,0,75.47-40.714,75.47-76.703V89.524C242.344,78.864,233.703,70.222,223.043,70.222z M64.794,136.269
		l-13.541-17.331c-3.315-4.242-5.115-9.471-5.115-14.855V93.808c0-3.998,3.24-7.238,7.238-7.238h1.817
		c1.982,0,3.877,0.812,5.243,2.248l4.359,4.58V136.269z M230.239,93.808v10.275c0,5.384-1.801,10.612-5.115,14.855l-13.542,17.331
		V93.397l4.359-4.58c1.366-1.435,3.261-2.248,5.243-2.248h1.817C226.998,86.57,230.239,89.81,230.239,93.808z"/>
	<path fill="#F1893D" d="M158.844,209.992l0.017,2.563c0.024,3.68-2.037,6.423,19.244,6.423c-0.829,0.302-0.373,1.299-1.15,1.552
		c-21.678,7.06-24.827-4.52-24.859-9.378l-0.017-2.563l-0.073-11.076c4.92-0.399,8.805-0.95,11.428-1.407
		c2.326-0.405,4.005-2.425,3.99-4.786l-0.024-3.567l-0.044-6.685c0,0,75.198-41.214,74.96-77.201l-0.094-14.174
		c-0.071-10.659-8.769-19.244-19.429-19.173l-2.569,0.017c-4.172,0.028-8.179,1.423-11.467,3.897
		c6.294-5.528,12.224-4.143,16.291-4.17l2.569-0.017c10.66-0.071,21.3,10.189,21.37,20.849l0.094,14.174
		c0.238,35.988-75.427,79.617-75.427,79.617l0.028,4.272l0.031,4.722c0.016,2.361-2.621,5.584-4.946,5.989
		c-2.622,0.456-4.975,0.998-9.896,1.397L158.844,209.992z"/>
	<path fill="#F1893D" d="M183.505,223.543v5.302v9.943c0,0.742-0.324,1.434-0.91,1.889c-3.388,2.635-16.303,11.289-39.824,11.289
		h-2.23c-11.054,0-19.419-1.761-25.532-3.873c5.491,1.409,12.325,2.425,20.707,2.425h2.23c27.746,0,38.804-11.058,38.804-11.058
		v-12.063v-7.001c0-0.348-0.089-1.126-0.225-1.422h2.957C179.481,218.975,183.505,218.8,183.505,223.543z"/>
	<path fill="#F1893D" d="M145.588,183.618c45.839-10.667,45.24-46.004,45.24-46.004V73.143c0-7.144-10.063-7.168-10.063-7.168
		c19.492-4.963,18.526,14.514,18.526,14.514v53.607c0.321,5.556-9.342,31.22-9.342,31.22l37.798-38
		c10.254-11.594,8.921-25.617,8.921-25.617V91.144c0-11.46-10.304-20.624-10.304-20.624c10.464-0.275,14.924,12.748,14.924,12.748
		l1.027,26.483c0,0-4.743,10.647-4.837,11.179c-0.095,0.533-15.101,19.569-15.101,19.569l-14.962,14.544l-40.063,26.406v10.734
		l-5.175,4.604l-10.164,1.888l-0.597,2.547c-4.427,25.031,18.316,21.048,18.316,21.048l8.157,0.124v17.319l-8.258,4.398
		l-0.03-18.803c-24.614,5.117-24.308-11.957-24.308-11.957v-17.473c12.37,0,15.074-3.901,15.074-6.325c0-2.423,0-7.331,0-7.331
		L145.588,183.618z"/>
	<g id="LUZ_1_">
		<path fill="#FFFFFF" d="M115.01,222.628l-1.516,0.015l-6.443,0.043l-3.917,0.026c-0.714,0.005-1.344,0.313-1.793,0.788l-0.011,0
			l0.008,0.004c-0.407,0.433-0.667,1.002-0.663,1.637l0.027,4.122l0.08,12.063l4.958,2.786l-0.068-11.615l-0.027-4.121
			c-0.004-0.634,0.256-1.203,0.663-1.637l-0.008-0.004h0.011c0.449-0.475,1.078-0.784,1.792-0.788l3.917-0.026l6.443-0.043
			l2.319-0.015c7.731-0.051,12.164-7.805,12.129-13.134l-0.171-13.886c-1.776-0.118-5.598-0.019-7.1-0.167
			C125.64,198.675,129.38,222.628,115.01,222.628z"/>
		<path fill="none" stroke="#FFFFFF" stroke-width="2" stroke-linecap="round" stroke-linejoin="round" stroke-miterlimit="10" d="
			M111.136,80.242l-12.184,0.081c-2.447,0.016-4.416,2.189-4.399,4.855l0.082,12.365"/>
		
			<line fill="none" stroke="#FFFFFF" stroke-width="2" stroke-linecap="round" stroke-linejoin="round" stroke-miterlimit="10" x1="94.682" y1="104.629" x2="94.682" y2="104.629"/>
		<g>
			<path fill="#FFFFFF" d="M39.112,92.488l0.094,14.174c0.097,14.546,9.666,28.115,22.194,39.626l-0.362,0.991
				c-14.613-13.142-26.939-28.286-27.03-42.032l-0.094-14.174c-0.07-10.66,7.858-21.119,18.789-21.191c0,0,8.443-0.603,15.079,3.695
				l-2.488,1.583C65.293,75.16,39.112,74.356,39.112,92.488z"/>
			<path fill="#FFFFFF" d="M87.612,89.749l0.033-9.376c-0.035-5.33,4.366-9.68,9.832-9.716l45.94-2.652l-1.719-3.24l-2.286,0.015
				l-51.542,0.1c-5.465,0.036-9.867,5.352-9.832,10.681l0.085,12.773c0,0,0.255,15.489,0.409,28.847
				c-2.217,16.915,3.563,34.449,3.563,34.449c6.808,16.146,17.914,24.702,28.512,29.215v7.275l-0.076,3.567
				c0.016,2.361,3.206,4.358,5.597,4.732c0.754,0.118,1.635,0.242,2.587,0.367c-1.092-0.884-1.775-2.213-1.785-3.684l-0.022-9.986
				c-31.279-14.995-29.158-56.943-29.158-56.943L87.612,89.749z"/>
		</g>
	</g>
	<g id="TRACO_ORIGINAL_1_">
		<g>
			<path fill="#553D4C" d="M167.357,183.344c-1.067,0-2.066-0.661-2.445-1.726c-0.48-1.351,0.226-2.833,1.576-3.314
				c21.468-7.634,28.304-28.713,30.259-45.051c0.17-1.424,1.485-2.44,2.883-2.268c1.423,0.17,2.439,1.462,2.269,2.886
				c-2.13,17.795-9.699,40.797-33.673,49.323C167.939,183.295,167.646,183.344,167.357,183.344z"/>
		</g>
		<g>
			<path fill="#553D4C" d="M199.7,122.672c-1.433,0-2.595-1.16-2.595-2.595V75.594c0-3.892-3.166-7.057-7.057-7.057H121.85
				c-1.433,0-2.595-1.16-2.595-2.595c0-1.434,1.162-2.595,2.595-2.595h68.198c6.753,0,12.246,5.493,12.246,12.246v44.483
				C202.294,121.511,201.133,122.672,199.7,122.672z"/>
		</g>
		<g>
			<path fill="#553D4C" d="M139.784,188.366h-2.23c-19.603,0-35.044-5.744-45.897-17.07c-17.563-18.332-16.656-44.448-16.609-45.55
				l-0.003-50.151c0-6.753,5.493-12.246,12.245-12.246h18.095c1.433,0,2.595,1.16,2.595,2.595c0,1.434-1.162,2.595-2.595,2.595
				H87.291c-3.891,0-7.055,3.165-7.055,7.057v50.263c-0.013,0.357-0.832,25.181,15.201,41.881
				c9.834,10.244,24.005,15.438,42.118,15.438h2.23c1.433,0,2.595,1.16,2.595,2.595S141.217,188.366,139.784,188.366z"/>
		</g>
		<g>
			<path fill="#553D4C" d="M133.237,200.779c-0.023,0-0.044,0-0.067,0c-8.851-0.223-15.541-1.079-19.594-1.758
				c-3.585-0.601-6.188-3.679-6.188-7.318v-10.254c0-1.434,1.162-2.595,2.595-2.595s2.595,1.16,2.595,2.595v10.254
				c0,1.095,0.78,2.019,1.856,2.199c3.888,0.651,10.319,1.472,18.868,1.688c1.432,0.038,2.564,1.226,2.527,2.66
				C135.794,199.659,134.64,200.779,133.237,200.779z"/>
		</g>
		<g>
			<path fill="#553D4C" d="M144.537,200.766c-1.4,0-2.553-1.115-2.592-2.521c-0.041-1.434,1.088-2.628,2.521-2.668
				c8.341-0.231,14.633-1.039,18.442-1.675c1.073-0.18,1.853-1.105,1.853-2.199v-10.254c0-1.434,1.162-2.595,2.595-2.595
				c1.433,0,2.595,1.16,2.595,2.595v10.254c0,3.639-2.602,6.717-6.188,7.318c-3.97,0.664-10.517,1.505-19.153,1.746
				C144.586,200.766,144.561,200.766,144.537,200.766z"/>
		</g>
		<g>
			<path fill="#553D4C" d="M102.001,246.321c-0.481,0-0.968-0.134-1.404-0.413c-2.384-1.538-3.555-2.683-3.68-2.81
				c-0.486-0.486-0.76-1.145-0.76-1.834v-16.186c0-2.762,2.246-5.007,5.008-5.007h12.365c6.427,0,9.318-5.052,9.318-8.64v-13.193
				c0-1.434,1.162-2.595,2.595-2.595c1.433,0,2.595,1.16,2.595,2.595v13.193c0,6.651-5.546,13.829-14.507,13.829h-12.365l0.181,3.94
				v10.878c0.466,0.37,1.152,0.879,2.064,1.467c1.204,0.778,1.551,2.382,0.774,3.588
				C103.688,245.903,102.853,246.321,102.001,246.321z"/>
		</g>
		<g>
			<path fill="#553D4C" d="M139.784,254.916h-2.23c-9.931,0-18.902-1.378-26.663-4.092c-1.352-0.474-2.065-1.954-1.591-3.307
				c0.473-1.353,1.952-2.063,3.307-1.594c7.207,2.524,15.602,3.803,24.948,3.803h2.23c3.868,0,7.623-0.223,11.163-0.664
				c2.954-0.37,5.811-0.894,8.488-1.563c1.823-0.454,3.602-0.983,5.285-1.571c6.165-2.159,9.798-4.685,11.273-5.856v-1.12
				c0-1.434,1.162-2.595,2.595-2.595c1.433,0,2.595,1.16,2.595,2.595v2.311c0,0.689-0.274,1.348-0.76,1.834
				c-0.177,0.177-4.466,4.394-13.988,7.728c-1.833,0.641-3.766,1.216-5.745,1.71c-2.877,0.717-5.939,1.28-9.1,1.675
				C147.837,254.68,143.866,254.916,139.784,254.916z"/>
		</g>
		<g>
			<path fill="#553D4C" d="M178.588,229.383c-1.433,0-2.595-1.16-2.595-2.595v-1.71l-3.637,0.182h-8.545
				c-8.961,0-14.507-7.178-14.507-13.829v-13.193c0-1.434,1.162-2.595,2.595-2.595s2.595,1.16,2.595,2.595v13.193
				c0,3.588,2.891,8.64,9.318,8.64h12.365c2.761,0,5.007,2.245,5.007,5.007v1.71C181.183,228.222,180.021,229.383,178.588,229.383z"
				/>
		</g>
		<g>
			<path fill="#553D4C" d="M167.358,184.043c-0.968,0-1.897-0.542-2.342-1.475c-0.618-1.292-0.072-2.84,1.22-3.461
				c0.19-0.091,19.22-9.286,39.466-26.298c1.097-0.917,2.734-0.778,3.655,0.317c0.922,1.097,0.779,2.734-0.318,3.656
				c-20.778,17.458-39.765,26.625-40.563,27.008C168.115,183.962,167.733,184.043,167.358,184.043z"/>
		</g>
		<g>
			<path fill="none" stroke="#553D4C" stroke-width="2" stroke-linecap="round" stroke-linejoin="round" stroke-miterlimit="10" d="
				M213.458,149.755"/>
		</g>
		<g>
			<path fill="none" stroke="#553D4C" stroke-width="2" stroke-linecap="round" stroke-linejoin="round" stroke-miterlimit="10" d="
				M215.971,147.552"/>
		</g>
		<g>
			<path fill="#553D4C" d="M215.972,150.146c-0.713,0-1.424-0.291-1.937-0.867c-0.954-1.069-0.861-2.709,0.208-3.664
				c2.536-2.265,4.938-4.546,7.135-6.778c0.459-0.464,0.91-0.93,1.356-1.396c11.61-12.152,17.498-23.151,17.498-32.696V90.571
				c0-9.21-7.495-16.705-16.708-16.705h-2.569c-4.49,0-8.84,1.84-11.97,5.052l-6.877,10.153c-0.803,1.188-2.416,1.495-3.603,0.694
				c-1.187-0.803-1.497-2.417-0.694-3.603l7.001-10.338c0.08-0.119,0.17-0.228,0.267-0.332c4.114-4.333,9.901-6.816,15.875-6.816
				h2.569c12.074,0,21.897,9.821,21.897,21.895v14.174c0,10.926-6.37,23.131-18.938,36.281c-0.466,0.489-0.932,0.97-1.406,1.452
				c-2.275,2.311-4.758,4.67-7.378,7.008C217.205,149.928,216.586,150.146,215.972,150.146z"/>
		</g>
		<g>
			<path fill="#553D4C" d="M212.065,139.912c-0.283,0-0.568-0.046-0.845-0.142c-1.046-0.36-1.75-1.345-1.75-2.453v-32.534
				c0-1.434,1.162-2.595,2.595-2.595s2.595,1.16,2.595,2.595v24.998l8.902-11.392c2.942-3.768,4.563-8.476,4.563-13.259V94.856
				c0-2.562-2.083-4.644-4.642-4.644h-1.817c-1.264,0-2.491,0.527-3.362,1.444c-0.986,1.034-2.63,1.082-3.668,0.091
				c-1.039-0.986-1.081-2.63-0.092-3.669c1.846-1.941,4.442-3.056,7.122-3.056h1.817c5.42,0,9.831,4.411,9.831,9.834v10.275
				c0,5.937-2.012,11.78-5.663,16.452l-13.542,17.331C213.608,139.557,212.848,139.912,212.065,139.912z"/>
		</g>
		<g>
			<circle fill="#553D4C" cx="213.458" cy="96.338" r="2.299"/>
		</g>
		<g>
			<path fill="#553D4C" d="M109.981,184.043c-0.416,0-0.837-0.099-1.229-0.312c-0.175-0.094-17.624-9.55-35.576-23.156
				c-1.141-0.864-1.366-2.493-0.5-3.636c0.863-1.14,2.488-1.366,3.635-0.499c17.62,13.353,34.734,22.632,34.904,22.726
				c1.262,0.679,1.732,2.253,1.052,3.514C111.797,183.549,110.904,184.043,109.981,184.043z"/>
		</g>
		<g>
			<path fill="none" stroke="#553D4C" stroke-width="2" stroke-linecap="round" stroke-linejoin="round" stroke-miterlimit="10" d="
				M63.882,149.755"/>
		</g>
		<g>
			<path fill="none" stroke="#553D4C" stroke-width="2" stroke-linecap="round" stroke-linejoin="round" stroke-miterlimit="10" d="
				M61.369,147.552"/>
		</g>
		<g>
			<path fill="#553D4C" d="M61.367,150.146c-0.614,0-1.231-0.218-1.727-0.659c-2.62-2.339-5.102-4.698-7.377-7.006
				c-0.476-0.486-0.945-0.968-1.408-1.454c-12.565-13.15-18.936-25.356-18.936-36.281V90.571c0-12.074,9.822-21.895,21.896-21.895
				h2.569c1.433,0,2.595,1.16,2.595,2.595s-1.162,2.595-2.595,2.595h-2.569c-9.212,0-16.707,7.495-16.707,16.705v14.174
				c0,9.545,5.887,20.544,17.5,32.699c0.447,0.466,0.898,0.932,1.356,1.399c2.194,2.227,4.595,4.508,7.133,6.773
				c1.069,0.955,1.162,2.595,0.208,3.664C62.791,149.854,62.081,150.146,61.367,150.146z"/>
		</g>
		<g>
			<path fill="#553D4C" d="M77.384,90.212c-0.832,0-1.649-0.398-2.151-1.14l-6.877-10.155c-0.867-0.889-1.842-1.688-2.899-2.374
				c-1.202-0.778-1.546-2.384-0.766-3.588c0.778-1.204,2.386-1.548,3.589-0.765c1.458,0.945,2.799,2.057,3.983,3.304
				c0.098,0.104,0.186,0.213,0.266,0.332l7.001,10.338c0.803,1.186,0.493,2.8-0.694,3.603
				C78.391,90.067,77.884,90.212,77.384,90.212z"/>
		</g>
		<g>
			<g>
				<path fill="#553D4C" d="M132.689,126.419c-0.288,0-0.578-0.096-0.818-0.291l-1.408-1.148c-1.535-1.254-3.75-1.242-5.263,0.028
					l-1.326,1.11c-0.55,0.461-1.368,0.388-1.827-0.162c-0.46-0.55-0.388-1.368,0.162-1.829l1.326-1.11
					c2.468-2.06,6.071-2.083,8.568-0.048l1.406,1.148c0.555,0.454,0.639,1.269,0.186,1.827
					C133.439,126.257,133.065,126.419,132.689,126.419z"/>
			</g>
			<g>
				<path fill="#553D4C" d="M157.726,126.419c-0.288,0-0.578-0.096-0.82-0.291l-1.406-1.148c-1.53-1.252-3.742-1.244-5.261,0.028
					l-1.326,1.11c-0.55,0.461-1.367,0.388-1.827-0.162s-0.388-1.368,0.162-1.829l1.326-1.11c2.469-2.068,6.075-2.08,8.568-0.048
					l1.406,1.148c0.555,0.454,0.637,1.272,0.184,1.827C158.476,126.257,158.103,126.419,157.726,126.419z"/>
			</g>
			<g>
				<path fill="#553D4C" d="M146.356,132.002h-6.013h-0.02h-6.013c-1.649,0-2.652,1.883-1.667,3.205
					c1.253,1.681,3.545,3.396,7.679,3.402v0.001c0.004,0,0.007-0.001,0.01-0.001s0.007,0.001,0.01,0.001v-0.001
					c4.134-0.006,6.426-1.72,7.679-3.402C149.008,133.885,148.004,132.002,146.356,132.002z"/>
			</g>
			<g>
				<ellipse fill="#E04C50" cx="123.041" cy="133.562" rx="3.167" ry="2.111"/>
			</g>
			<g>
				<ellipse fill="#E04C50" cx="157.728" cy="133.562" rx="3.167" ry="2.111"/>
			</g>
			<g>
				<path fill="#E3A6C2" d="M140.333,134.297"/>
			</g>
			<g>
				<path fill="#E04C50" d="M144.536,136.801c-0.06-0.526-0.548-2.141-4.19-2.15v-0.001c-0.005,0-0.008,0.001-0.013,0.001
					c-0.005,0-0.008-0.001-0.013-0.001v0.001c-3.642,0.009-4.13,1.624-4.19,2.15c-0.007,0.06,0.007,0.123,0.086,0.168
					c0.243,0.142,1.151,0.896,4.104,0.901v0.001c0.005,0,0.008,0,0.013,0c0.005,0,0.008,0,0.013,0v-0.001
					c2.954-0.005,3.861-0.759,4.104-0.901C144.529,136.924,144.543,136.861,144.536,136.801z"/>
			</g>
		</g>
		<g>
			<path fill="#553D4C" d="M128.562,232.818c-0.073,0-0.148-0.003-0.223-0.01c-2.759-0.233-5.54-0.578-8.268-1.019
				c-0.727-0.117-1.447-0.241-2.15-0.367c-1.41-0.256-2.346-1.606-2.09-3.018c0.256-1.409,1.609-2.346,3.015-2.09
				c0.668,0.122,1.352,0.241,2.049,0.352c2.605,0.421,5.255,0.747,7.885,0.973c1.428,0.122,2.487,1.376,2.365,2.805
				C131.03,231.797,129.896,232.818,128.562,232.818z"/>
		</g>
		<g>
			<path fill="#553D4C" d="M139.784,233.201c-1.433,0-2.595-1.16-2.595-2.595s1.162-2.595,2.595-2.595
				c21.509,0,36.933-6.867,37.086-6.935c1.309-0.593,2.843-0.01,3.433,1.295c0.59,1.305,0.011,2.843-1.295,3.433
				C178.341,226.106,162.401,233.201,139.784,233.201z"/>
		</g>
		<g>
			<path fill="none" stroke="#553D4C" stroke-width="2" stroke-linecap="round" stroke-linejoin="round" stroke-miterlimit="10" d="
				M106.794,248.501"/>
		</g>
		<g>
			<path fill="#553D4C" d="M65.276,139.912c-0.783,0-1.543-0.355-2.045-0.998l-13.542-17.331
				c-3.652-4.675-5.664-10.518-5.664-16.452V94.856c0-5.422,4.411-9.834,9.832-9.834h1.817c2.679,0,5.277,1.115,7.122,3.056
				l4.358,4.579c0.46,0.481,0.716,1.122,0.716,1.789v42.872c0,1.107-0.703,2.093-1.75,2.453
				C65.843,139.866,65.558,139.912,65.276,139.912z M53.857,90.212c-2.56,0-4.643,2.083-4.643,4.644v10.275
				c0,4.784,1.62,9.492,4.565,13.259l8.902,11.392V95.484l-3.644-3.829c-0.873-0.917-2.099-1.444-3.364-1.444H53.857z"/>
		</g>
		<g>
			<circle fill="#553D4C" cx="66.811" cy="153.639" r="2.299"/>
		</g>
	</g>
	<g>
		<g>
			<g>
				<g>
					<path fill="#DAD4A5" d="M154.792,47.539h-4.017c-0.755,0-1.368-0.613-1.368-1.368c0-0.755,0.613-1.368,1.368-1.368h4.017
						c0.755,0,1.368,0.613,1.368,1.368C156.16,46.927,155.547,47.539,154.792,47.539z"/>
				</g>
			</g>
			<g>
				<g>
					<path fill="#DAD4A5" d="M141.824,47.539h-4.017c-0.755,0-1.368-0.613-1.368-1.368c0-0.755,0.613-1.368,1.368-1.368h4.017
						c0.755,0,1.368,0.613,1.368,1.368C143.191,46.927,142.579,47.539,141.824,47.539z"/>
				</g>
			</g>
			<g>
				<g>
					<path fill="#DAD4A5" d="M146.298,56.034c-0.755,0-1.368-0.613-1.368-1.368V50.65c0-0.755,0.613-1.368,1.368-1.368
						c0.755,0,1.368,0.613,1.368,1.368v4.017C147.666,55.422,147.053,56.034,146.298,56.034z"/>
				</g>
			</g>
			<g>
				<g>
					<path fill="#DAD4A5" d="M146.298,43.066c-0.755,0-1.368-0.613-1.368-1.368v-4.017c0-0.755,0.613-1.368,1.368-1.368
						c0.755,0,1.368,0.613,1.368,1.368v4.017C147.666,42.454,147.053,43.066,146.298,43.066z"/>
				</g>
			</g>
			<g>
				<g>
					<path fill="#DAD4A5" d="M152.306,53.545c-0.35,0-0.7-0.133-0.967-0.401l-2.842-2.84c-0.533-0.534-0.533-1.4,0-1.934
						c0.535-0.535,1.4-0.535,1.934,0l2.841,2.84c0.534,0.534,0.534,1.4,0,1.934C153.006,53.412,152.656,53.545,152.306,53.545z"/>
				</g>
			</g>
			<g>
				<g>
					<path fill="#DAD4A5" d="M143.136,44.375c-0.35,0-0.7-0.133-0.967-0.401l-2.841-2.84c-0.534-0.534-0.534-1.4,0-1.934
						c0.535-0.535,1.399-0.535,1.934,0l2.842,2.84c0.533,0.534,0.533,1.4,0,1.934C143.836,44.242,143.486,44.375,143.136,44.375z"/>
				</g>
			</g>
			<g>
				<g>
					<path fill="#DAD4A5" d="M140.292,53.35c-0.35,0-0.7-0.129-0.967-0.387c-0.534-0.517-0.534-1.355,0-1.871l2.841-2.747
						c0.535-0.518,1.4-0.518,1.934,0c0.534,0.517,0.534,1.355,0,1.871l-2.842,2.747C140.992,53.221,140.642,53.35,140.292,53.35z"/>
				</g>
			</g>
			<g>
				<g>
					<path fill="#DAD4A5" d="M149.462,44.376c-0.35,0-0.7-0.133-0.967-0.401c-0.534-0.535-0.534-1.401,0-1.934l2.841-2.84
						c0.535-0.535,1.4-0.535,1.934,0c0.534,0.535,0.534,1.401,0,1.934l-2.842,2.84C150.162,44.243,149.812,44.376,149.462,44.376z"
						/>
				</g>
			</g>
		</g>
		<g>
			<path fill="#F2B967" d="M119.071,29.716c1.899,0,3.444,1.546,3.444,3.445c0,1.899-1.545,3.444-3.444,3.444
				s-3.444-1.545-3.444-3.444C115.627,31.262,117.172,29.716,119.071,29.716 M119.071,27.646c-3.045,0-5.514,2.469-5.514,5.515
				c0,3.045,2.469,5.514,5.514,5.514c3.047,0,5.514-2.469,5.514-5.514C124.586,30.115,122.118,27.646,119.071,27.646L119.071,27.646
				z"/>
		</g>
		<g>
			<path fill="#F2B967" d="M186.851,37.323c-2.295,0-4.162-1.867-4.162-4.161c0-2.295,1.867-4.162,4.162-4.162
				c0.444,0,0.805,0.361,0.805,0.805c0,0.445-0.361,0.805-0.805,0.805c-1.407,0-2.551,1.145-2.551,2.552s1.144,2.551,2.551,2.551
				c1.407,0,2.551-1.144,2.551-2.551c0-0.445,0.361-0.805,0.805-0.805c0.445,0,0.805,0.36,0.805,0.805
				C191.012,35.456,189.146,37.323,186.851,37.323z"/>
		</g>
		<g>
			<path fill="#E04C50" d="M142.618,12.243c0,0-3.8-0.781-4.434-1.414c-0.631-0.633-1.414-4.432-1.414-4.432l-0.064-0.211
				c-0.047-0.108-0.115-0.212-0.205-0.302c-0.382-0.383-1.004-0.384-1.388,0.001c-0.094,0.096-0.165,0.203-0.212,0.318l-0.021,0.06
				c0,0-0.316,3.412-1.435,4.531c-1.119,1.119-4.531,1.436-4.531,1.436l-0.059,0.021c-0.118,0.047-0.224,0.117-0.321,0.211
				c-0.384,0.385-0.384,1.006,0,1.389c0.09,0.09,0.193,0.155,0.302,0.204l0.21,0.065c0,0,3.8,0.779,4.434,1.411
				c0.634,0.633,1.411,4.434,1.411,4.434l0.066,0.211c0.047,0.108,0.113,0.212,0.203,0.302c0.384,0.383,1.006,0.384,1.39,0
				c0.094-0.096,0.162-0.204,0.212-0.319l0.019-0.059c0,0,0.483-3.577,1.437-4.531c0.954-0.955,4.531-1.437,4.531-1.437l0.061-0.02
				c0.113-0.048,0.222-0.117,0.318-0.212c0.384-0.384,0.381-1.006,0-1.389c-0.09-0.09-0.193-0.155-0.302-0.204L142.618,12.243z"/>
		</g>
		<g>
			<path fill="#F1893D" d="M95.956,37.039c0,0-2.731-0.561-3.187-1.016c-0.454-0.455-1.016-3.185-1.016-3.185l-0.046-0.152
				c-0.034-0.078-0.083-0.152-0.147-0.217c-0.274-0.275-0.721-0.276-0.997,0.001c-0.068,0.069-0.118,0.146-0.152,0.229l-0.015,0.043
				c0,0-0.227,2.452-1.031,3.256c-0.804,0.804-3.256,1.032-3.256,1.032l-0.042,0.015c-0.085,0.034-0.161,0.084-0.23,0.152
				c-0.276,0.277-0.276,0.723,0,0.998c0.064,0.064,0.139,0.111,0.217,0.146l0.151,0.047c0,0,2.731,0.56,3.187,1.014
				c0.456,0.455,1.014,3.187,1.014,3.187l0.047,0.152c0.034,0.078,0.081,0.152,0.146,0.217c0.276,0.275,0.723,0.276,0.999,0
				c0.068-0.069,0.117-0.146,0.152-0.229l0.014-0.042c0,0,0.347-2.57,1.033-3.256c0.686-0.687,3.256-1.033,3.256-1.033l0.044-0.014
				c0.081-0.035,0.159-0.084,0.229-0.152c0.276-0.276,0.274-0.723,0-0.998c-0.064-0.064-0.139-0.112-0.217-0.146L95.956,37.039z"/>
		</g>
		<g>
			<g>
				<g>
					<path fill="#E04C50" d="M174.661,33.161h-1.84c-0.755,0-1.368-0.613-1.368-1.368c0-0.755,0.613-1.368,1.368-1.368h1.84
						c0.755,0,1.368,0.613,1.368,1.368C176.028,32.548,175.416,33.161,174.661,33.161z"/>
				</g>
			</g>
			<g>
				<g>
					<path fill="#E04C50" d="M167.668,33.161h-1.84c-0.755,0-1.368-0.613-1.368-1.368c0-0.755,0.613-1.368,1.368-1.368h1.84
						c0.755,0,1.368,0.613,1.368,1.368C169.035,32.548,168.423,33.161,167.668,33.161z"/>
				</g>
			</g>
			<g>
				<g>
					<path fill="#E04C50" d="M170.243,37.591c-0.755,0-1.368-0.613-1.368-1.368v-1.847c0-0.755,0.613-1.368,1.368-1.368
						c0.755,0,1.367,0.613,1.367,1.368v1.847C171.611,36.978,170.998,37.591,170.243,37.591z"/>
				</g>
			</g>
			<g>
				<g>
					<path fill="#E04C50" d="M170.243,30.583c-0.755,0-1.368-0.613-1.368-1.368v-1.847c0-0.755,0.613-1.368,1.368-1.368
						c0.755,0,1.367,0.613,1.367,1.368v1.847C171.611,29.971,170.998,30.583,170.243,30.583z"/>
				</g>
			</g>
			<g>
				<g>
					<path fill="#E04C50" d="M174.661,33.161h-1.84c-0.755,0-1.368-0.613-1.368-1.368c0-0.755,0.613-1.368,1.368-1.368h1.84
						c0.755,0,1.368,0.613,1.368,1.368C176.028,32.548,175.416,33.161,174.661,33.161z"/>
				</g>
			</g>
			<g>
				<g>
					<path fill="#E04C50" d="M167.668,33.161h-1.84c-0.755,0-1.368-0.613-1.368-1.368c0-0.755,0.613-1.368,1.368-1.368h1.84
						c0.755,0,1.368,0.613,1.368,1.368C169.035,32.548,168.423,33.161,167.668,33.161z"/>
				</g>
			</g>
		</g>
		<g>
			<g>
				<g>
					<path fill="#E04C50" d="M109.901,48.027h-1.492c-0.511,0-0.926-0.415-0.926-0.926s0.415-0.926,0.926-0.926h1.492
						c0.511,0,0.926,0.415,0.926,0.926S110.412,48.027,109.901,48.027z"/>
				</g>
			</g>
			<g>
				<g>
					<path fill="#E04C50" d="M103.854,48.027H102.8c-0.511,0-0.926-0.415-0.926-0.926s0.415-0.926,0.926-0.926h1.054
						c0.511,0,0.926,0.415,0.926,0.926S104.365,48.027,103.854,48.027z"/>
				</g>
			</g>
			<g>
				<g>
					<path fill="#E04C50" d="M106.408,46.595c-0.511,0-0.926-0.415-0.926-0.926v-1.496c0-0.511,0.415-0.926,0.926-0.926
						c0.511,0,0.926,0.415,0.926,0.926v1.496C107.334,46.18,106.919,46.595,106.408,46.595z"/>
				</g>
			</g>
			<g>
				<g>
					<path fill="#E04C50" d="M108.765,51.364c-0.237,0-0.474-0.09-0.655-0.271l-1.058-1.058c-0.361-0.361-0.361-0.949,0-1.31
						c0.362-0.362,0.948-0.362,1.31,0l1.058,1.058c0.361,0.361,0.361,0.949,0,1.31C109.239,51.274,109.001,51.364,108.765,51.364z"
						/>
				</g>
			</g>
			<g>
				<g>
					<path fill="#E04C50" d="M104.046,51.364c-0.237,0-0.474-0.09-0.655-0.271c-0.361-0.361-0.361-0.949,0-1.31l1.058-1.058
						c0.362-0.362,0.948-0.362,1.31,0c0.361,0.361,0.361,0.949,0,1.31l-1.058,1.058C104.52,51.274,104.283,51.364,104.046,51.364z"
						/>
				</g>
			</g>
		</g>
		<g>
			<circle fill="#F2B967" cx="82.647" cy="52.773" r="2.311"/>
		</g>
		<g>
			<g>
				<path fill="#F2B967" d="M182.689,46.959c2.51,0,4.552,2.043,4.552,4.553c0,2.51-2.042,4.552-4.552,4.552
					s-4.552-2.042-4.552-4.552C178.138,49.002,180.179,46.959,182.689,46.959 M182.689,44.224c-4.024,0-7.287,3.263-7.287,7.289
					c0,4.024,3.263,7.287,7.287,7.287c4.027,0,7.287-3.263,7.287-7.287C189.977,47.487,186.716,44.224,182.689,44.224
					L182.689,44.224z"/>
			</g>
		</g>
		<g>
			<circle fill="#DAD4A5" cx="115.627" cy="13.182" r="2.311"/>
		</g>
		<g>
			<circle fill="#F2B967" cx="149.464" cy="23.078" r="2.311"/>
		</g>
	</g>
	<path fill="#00A2C2" d="M139.995,275.403"/>
</g>
<g>
	<g>
		<g>
			<path fill="#DAD4A5" d="M-177.234,578.434c-6.868-1.458-13.093,2.284-15.495,8.023h-161.251c-2.89,0-5.232,2.343-5.232,5.232l0,0
				c0,2.89,2.343,5.232,5.232,5.232h161.251c2.049,4.897,6.881,8.339,12.521,8.339c8.454,0,15.103-7.73,13.264-16.508
				C-168.013,583.648-172.131,579.517-177.234,578.434z"/>
			<linearGradient id="SVGID_1_" gradientUnits="userSpaceOnUse" x1="-322.4644" y1="673.1108" x2="-213.8912" y2="673.1108">
				<stop  offset="0.064" style="stop-color:#F0D9A1"/>
				<stop  offset="0.33" style="stop-color:#F2B967"/>
			</linearGradient>
			<polygon fill="url(#SVGID_1_)" points="-322.464,596.922 -322.464,640.726 -322.464,712.018 -268.178,749.299 -213.891,712.018 
				-213.891,640.726 -213.891,596.922 			"/>
			<linearGradient id="SVGID_2_" gradientUnits="userSpaceOnUse" x1="-309.7103" y1="693.5522" x2="-226.65" y2="693.5522">
				<stop  offset="0" style="stop-color:#F1893D"/>
				<stop  offset="0.6207" style="stop-color:#F1893D"/>
			</linearGradient>
			<polygon fill="url(#SVGID_2_)" points="-309.71,654.483 -309.71,706.271 -268.18,732.621 -226.65,706.271 -226.65,654.483 			"/>
			<path fill="#DAD4A5" d="M-353.979,596.89c-2.89,0-5.232-2.343-5.232-5.232c0-2.89,2.343-5.232,5.232-5.232h0.447V558.3h-13.408
				c-2.89,0-5.232,2.343-5.232,5.232v59.192c0,2.89,2.343,5.232,5.232,5.232h13.408V596.89H-353.979z"/>
			
				<polygon fill="none" stroke="#F1893D" stroke-width="1.5" stroke-linecap="round" stroke-linejoin="round" stroke-miterlimit="10" points="
				-309.71,654.483 -309.71,706.271 -268.18,732.621 -226.65,706.271 -226.65,654.483 			"/>
		</g>
		<path fill="#F1893D" d="M-207.014,710.423l-58.311,39.615l50.454-43.415V597.886h10.138v108.217
			C-204.734,707.831-205.588,709.448-207.014,710.423z"/>
		<rect x="-215.199" y="596.595" fill="#C6C09B" width="21.747" height="8.666"/>
		<rect x="-355.331" y="596.595" fill="#C6C09B" width="32.866" height="8.666"/>
		<path fill="#C6C09B" d="M-166.636,595.859l-3.761,6.605c0,0-10.465,6.868-18.477,0c-2.943-2.289-3.761-6.605-3.761-6.605h-8.584
			c1.73,9.728,9.278,17.052,18.33,17.052c9.052,0,16.6-7.324,18.33-17.052H-166.636z"/>
		<polygon fill="#F1893D" points="-213.891,712.018 -219.302,715.948 -220.079,598.23 -213.891,598.23 		"/>
		<g>
			<path fill="#F1893D" d="M-268.18,734.583c-0.365,0-0.73-0.102-1.05-0.307l-41.531-26.351c-0.567-0.358-0.911-0.984-0.911-1.656
				v-51.786c0-1.083,0.879-1.962,1.962-1.962h83.06c1.083,0,1.962,0.879,1.962,1.962v51.786c0,0.672-0.345,1.298-0.912,1.656
				l-41.53,26.351C-267.45,734.481-267.815,734.583-268.18,734.583z M-307.748,705.192l39.568,25.104l39.568-25.104v-48.745h-79.136
				V705.192z"/>
		</g>
		<path fill="#C6C09B" d="M-166.944,588.754c0,0-8.031,14.726-26.345,2.936h-165.923v35.592h5.679v-30.378h158.935
			c0,0,7.195,8.357,14.389,8.357C-180.207,605.262-166.944,606.112-166.944,588.754z"/>
		<g>
			<polygon fill="#FFFFFF" points="-310.234,720.777 -322.62,713.108 -322.62,597.24 -310.234,597.24 			"/>
			<rect x="-371.736" y="560.277" fill="#FFFFFF" width="5.886" height="67.005"/>
			
				<line fill="none" stroke="#FFFFFF" stroke-width="2" stroke-linecap="round" stroke-linejoin="round" stroke-miterlimit="10" x1="-227.067" y1="605.262" x2="-227.067" y2="627.957"/>
			<circle fill="#FFFFFF" cx="-226.204" cy="637.764" r="3.77"/>
		</g>
		<g>
			<g>
				<path fill="#553D4C" d="M-180.207,607.878c-5.945,0-11.326-3.222-14.157-8.339h-159.615c-4.328,0-7.849-3.521-7.849-7.849
					s3.521-7.849,7.849-7.849h74.093c1.445,0,2.616,1.17,2.616,2.616c0,1.446-1.171,2.616-2.616,2.616h-74.093
					c-1.442,0-2.616,1.173-2.616,2.616c0,1.444,1.174,2.616,2.616,2.616h161.25c1.055,0,2.006,0.634,2.414,1.607
					c1.709,4.09,5.677,6.732,10.107,6.732c3.316,0,6.415-1.477,8.508-4.055c2.123-2.614,2.902-5.917,2.195-9.3
					c-0.296-1.415,0.608-2.8,2.023-3.097c1.408-0.291,2.8,0.606,3.097,2.023c1.025,4.885-0.161,9.867-3.252,13.671
					C-170.726,605.696-175.309,607.878-180.207,607.878z"/>
			</g>
			<g>
				<path fill="#553D4C" d="M-192.729,589.073h-70.196c-1.446,0-2.616-1.17-2.616-2.616c0-1.446,1.17-2.616,2.616-2.616h68.561
					c3.426-6.16,10.58-9.469,17.675-7.966c1.413,0.301,2.315,1.691,2.016,3.104c-0.304,1.413-1.694,2.307-3.104,2.016
					c-5.314-1.129-10.47,1.536-12.537,6.472C-190.723,588.44-191.674,589.073-192.729,589.073z"/>
			</g>
			<g>
				<path fill="#553D4C" d="M-268.178,751.915c-0.517,0-1.035-0.153-1.481-0.46l-54.287-37.281
					c-0.712-0.488-1.136-1.295-1.136-2.156v-71.292c0-1.446,1.171-2.616,2.616-2.616h78.16c1.446,0,2.616,1.17,2.616,2.616
					c0,1.446-1.17,2.616-2.616,2.616h-75.543v67.299l51.67,35.485l13.329-9.154c1.191-0.82,2.823-0.516,3.638,0.674
					c0.818,1.193,0.516,2.821-0.674,3.638l-14.812,10.171C-267.143,751.762-267.66,751.915-268.178,751.915z"/>
			</g>
			<g>
				<path fill="#553D4C" d="M-224.708,722.066c-0.833,0-1.653-0.396-2.159-1.134c-0.818-1.191-0.516-2.821,0.674-3.638l9.686-6.653
					V657.09c0-1.446,1.17-2.616,2.616-2.616s2.616,1.17,2.616,2.616v54.928c0,0.861-0.424,1.668-1.134,2.156l-10.82,7.432
					C-223.681,721.918-224.197,722.066-224.708,722.066z"/>
			</g>
			<g>
				<path fill="#553D4C" d="M-353.532,630.573h-13.408c-4.328,0-7.849-3.521-7.849-7.849v-59.192c0-4.328,3.521-7.849,7.849-7.849
					h13.408c1.445,0,2.616,1.17,2.616,2.616v28.124c0,1.446-1.171,2.616-2.616,2.616h-0.447c-1.442,0-2.616,1.173-2.616,2.616
					s1.174,2.616,2.616,2.616h0.447c1.445,0,2.616,1.17,2.616,2.616c0,1.446-1.171,2.616-2.616,2.616h-0.447
					c-4.328,0-7.849-3.521-7.849-7.849c0-3.574,2.404-6.599,5.68-7.545v-23.196h-10.792c-1.442,0-2.616,1.173-2.616,2.616v59.192
					c0,1.444,1.174,2.616,2.616,2.616h10.792v-11.152c0-1.446,1.171-2.616,2.616-2.616s2.616,1.17,2.616,2.616v13.768
					C-350.916,629.403-352.087,630.573-353.532,630.573z"/>
			</g>
			<g>
				<path fill="#553D4C" d="M-322.464,610.639c-1.445,0-2.616-1.17-2.616-2.616v-21.566c0-1.446,1.171-2.616,2.616-2.616
					s2.616,1.17,2.616,2.616v21.566C-319.848,609.469-321.019,610.639-322.464,610.639z"/>
			</g>
			<g>
				<path fill="#553D4C" d="M-322.464,643.342c-1.445,0-2.616-1.17-2.616-2.616v-13.444c0-1.446,1.171-2.616,2.616-2.616
					s2.616,1.17,2.616,2.616v13.444C-319.848,642.172-321.019,643.342-322.464,643.342z"/>
			</g>
			<g>
				<path fill="#553D4C" d="M-213.891,643.342c-1.446,0-2.616-1.17-2.616-2.616v-54.269c0-1.446,1.17-2.616,2.616-2.616
					s2.616,1.17,2.616,2.616v54.269C-211.275,642.172-212.445,643.342-213.891,643.342z"/>
			</g>
			<g>
				<g>
					
						<ellipse transform="matrix(1 -0.0045 0.0045 1 -2.8 -1.309)" fill="#E04C50" cx="-293.381" cy="623.889" rx="4.523" ry="3.054"/>
				</g>
				<g>
					
						<ellipse transform="matrix(1 -0.0045 0.0045 1 -2.7995 -1.0909)" fill="#E04C50" cx="-244.719" cy="623.889" rx="4.523" ry="3.054"/>
				</g>
				<g>
					<path fill="#E3A6C2" d="M-268.18,626.119"/>
				</g>
				<g>
					
						<ellipse transform="matrix(1 -0.007 0.007 1 -4.3217 -1.7636)" fill="#553D4C" cx="-252.762" cy="613.2" rx="4.034" ry="4.085"/>
				</g>
				<g>
					<path fill="#553D4C" d="M-268.867,628.263c-2.918,0-5.641-1.41-7.35-3.825l-0.465-0.657c-0.314-0.442-0.21-1.053,0.231-1.367
						c0.445-0.314,1.055-0.212,1.368,0.232l0.466,0.657c1.403,1.983,3.666,3.099,6.074,2.989c2.407-0.11,4.573-1.433,5.795-3.541
						c0.271-0.47,0.871-0.641,1.336-0.378c0.468,0.263,0.646,0.838,0.388,1.311c-1.584,2.739-4.351,4.43-7.431,4.568
						C-268.593,628.261-268.731,628.263-268.867,628.263z"/>
				</g>
				<g>
					<path fill="#553D4C" d="M-288.833,616.771c-0.351,0-0.703-0.141-0.961-0.419c-0.491-0.531-0.457-1.359,0.073-1.85l1.492-1.38
						c2.181-2.021,5.497-2.044,7.707-0.049l1.512,1.359c0.537,0.485,0.58,1.311,0.097,1.85c-0.48,0.537-1.307,0.583-1.847,0.097
						l-1.513-1.362c-1.196-1.081-2.996-1.068-4.181,0.026l-1.492,1.38C-288.197,616.656-288.515,616.771-288.833,616.771z"/>
				</g>
			</g>
		</g>
		<g>
			<path fill="#F3EDC5" d="M-265.391,710.456h-8.315v-22.186h-5.546v-7.646l5.546-0.003l-0.009-4.504
				c0-6.238,1.691-10.033,9.039-10.033h6.118v7.648h-3.823c-2.861,0-2.999,1.068-2.999,3.063l-0.012,3.827h6.877l-0.81,7.646
				l-6.06,0.003L-265.391,710.456z M-265.391,710.456"/>
		</g>
	</g>
	<g>
		<g>
			<g>
				<g>
					<path fill="#F2B967" d="M-258.969,769.856h-4.356c-0.819,0-1.483-0.664-1.483-1.483c0-0.819,0.664-1.483,1.483-1.483h4.356
						c0.819,0,1.483,0.664,1.483,1.483C-257.486,769.192-258.15,769.856-258.969,769.856z"/>
				</g>
			</g>
			<g>
				<g>
					<path fill="#F2B967" d="M-273.031,769.856h-4.356c-0.819,0-1.483-0.664-1.483-1.483c0-0.819,0.664-1.483,1.483-1.483h4.356
						c0.819,0,1.483,0.664,1.483,1.483C-271.548,769.192-272.212,769.856-273.031,769.856z"/>
				</g>
			</g>
			<g>
				<g>
					<path fill="#F2B967" d="M-268.179,779.068c-0.819,0-1.483-0.664-1.483-1.483v-4.356c0-0.819,0.664-1.483,1.483-1.483
						s1.483,0.664,1.483,1.483v4.356C-266.696,778.404-267.36,779.068-268.179,779.068z"/>
				</g>
			</g>
			<g>
				<g>
					<path fill="#F2B967" d="M-268.179,765.006c-0.819,0-1.483-0.664-1.483-1.483v-4.356c0-0.819,0.664-1.483,1.483-1.483
						s1.483,0.664,1.483,1.483v4.356C-266.696,764.341-267.36,765.006-268.179,765.006z"/>
				</g>
			</g>
			<g>
				<g>
					<path fill="#F2B967" d="M-261.664,776.368c-0.379,0-0.759-0.144-1.049-0.434l-3.081-3.08c-0.579-0.579-0.579-1.518,0-2.098
						c0.58-0.58,1.517-0.58,2.097,0l3.081,3.08c0.579,0.579,0.579,1.518,0,2.097C-260.905,776.224-261.285,776.368-261.664,776.368z
						"/>
				</g>
			</g>
			<g>
				<g>
					<path fill="#F2B967" d="M-271.608,766.425c-0.379,0-0.759-0.144-1.049-0.435l-3.081-3.08c-0.579-0.579-0.579-1.518,0-2.098
						c0.58-0.58,1.518-0.58,2.097,0l3.081,3.08c0.579,0.579,0.579,1.518,0,2.097C-270.849,766.28-271.228,766.425-271.608,766.425z"
						/>
				</g>
			</g>
			<g>
				<g>
					<path fill="#F2B967" d="M-274.691,776.156c-0.379,0-0.759-0.14-1.049-0.42c-0.579-0.561-0.579-1.469,0-2.029l3.081-2.979
						c0.58-0.561,1.518-0.561,2.098,0c0.579,0.561,0.579,1.469,0,2.029l-3.081,2.979
						C-273.933,776.017-274.312,776.156-274.691,776.156z"/>
				</g>
			</g>
			<g>
				<g>
					<path fill="#F2B967" d="M-264.748,766.426c-0.38,0-0.759-0.144-1.049-0.435c-0.579-0.58-0.579-1.519,0-2.097l3.081-3.08
						c0.58-0.58,1.518-0.58,2.098,0c0.579,0.58,0.579,1.519,0,2.098l-3.081,3.08C-263.989,766.282-264.368,766.426-264.748,766.426z
						"/>
				</g>
			</g>
		</g>
		<g>
			<path fill="#F2B967" d="M-208.74,741.829c2.113,0,3.832,1.676,3.832,3.736c0,2.06-1.719,3.735-3.832,3.735
				s-3.832-1.675-3.832-3.735C-212.572,743.505-210.853,741.829-208.74,741.829 M-208.74,739.584c-3.388,0-6.135,2.677-6.135,5.98
				c0,3.302,2.747,5.98,6.135,5.98c3.39,0,6.135-2.678,6.135-5.98C-202.605,742.261-205.35,739.584-208.74,739.584L-208.74,739.584z
				"/>
		</g>
		<g>
			<path fill="#E04C50" d="M-298.636,749.315c-2.488,0-4.513-2.024-4.513-4.512c0-2.489,2.024-4.514,4.513-4.514
				c0.482,0,0.873,0.391,0.873,0.873c0,0.482-0.391,0.873-0.873,0.873c-1.526,0-2.767,1.242-2.767,2.767
				c0,1.526,1.241,2.766,2.767,2.766s2.767-1.241,2.767-2.766c0-0.482,0.391-0.873,0.873-0.873c0.482,0,0.873,0.391,0.873,0.873
				C-294.123,747.29-296.147,749.315-298.636,749.315z"/>
		</g>
		<g>
			<path fill="#F1893D" d="M-311.158,738.855c0,0-2.95-0.606-3.442-1.098c-0.49-0.491-1.097-3.441-1.097-3.441l-0.049-0.164
				c-0.037-0.084-0.09-0.165-0.159-0.234c-0.296-0.297-0.779-0.298-1.077,0.001c-0.073,0.074-0.128,0.157-0.165,0.247l-0.016,0.047
				c0,0-0.245,2.648-1.114,3.518c-0.869,0.869-3.517,1.115-3.517,1.115l-0.046,0.016c-0.092,0.036-0.174,0.091-0.249,0.164
				c-0.298,0.299-0.298,0.781,0,1.078c0.07,0.07,0.15,0.121,0.234,0.158l0.163,0.05c0,0,2.95,0.605,3.442,1.096
				c0.492,0.491,1.096,3.443,1.096,3.443l0.051,0.164c0.036,0.084,0.088,0.165,0.157,0.234c0.298,0.297,0.781,0.298,1.079,0
				c0.073-0.074,0.126-0.158,0.164-0.248l0.015-0.046c0,0,0.375-2.777,1.116-3.517c0.741-0.742,3.517-1.116,3.517-1.116l0.048-0.015
				c0.088-0.037,0.172-0.091,0.247-0.165c0.298-0.298,0.296-0.781,0-1.078c-0.07-0.07-0.15-0.121-0.234-0.158L-311.158,738.855z"/>
		</g>
		<g>
			<path fill="#F1893D" d="M-209.911,727.525c0,0-2.962-0.609-3.455-1.102c-0.492-0.493-1.101-3.453-1.101-3.453l-0.05-0.164
				c-0.037-0.085-0.09-0.165-0.16-0.235c-0.297-0.299-0.782-0.3-1.081,0.001c-0.074,0.075-0.128,0.158-0.165,0.248l-0.016,0.047
				c0,0-0.246,2.658-1.118,3.531c-0.872,0.872-3.531,1.119-3.531,1.119l-0.046,0.017c-0.092,0.037-0.174,0.091-0.25,0.164
				c-0.299,0.3-0.299,0.784,0,1.082c0.07,0.07,0.151,0.121,0.235,0.159l0.163,0.051c0,0,2.962,0.607,3.456,1.1
				c0.494,0.493,1.1,3.455,1.1,3.455l0.051,0.164c0.037,0.085,0.088,0.165,0.158,0.235c0.299,0.298,0.784,0.299,1.083,0
				c0.074-0.075,0.127-0.159,0.165-0.249l0.015-0.046c0,0,0.376-2.787,1.12-3.531c0.744-0.745,3.531-1.12,3.531-1.12l0.048-0.016
				c0.088-0.038,0.172-0.091,0.248-0.165c0.299-0.299,0.297-0.784,0-1.082c-0.07-0.07-0.151-0.121-0.235-0.159L-209.911,727.525z"/>
		</g>
		<g>
			<g>
				<g>
					<path fill="#E04C50" d="M-223.823,746.285h-1.995c-0.819,0-1.483-0.664-1.483-1.483c0-0.819,0.665-1.483,1.483-1.483h1.995
						c0.819,0,1.483,0.664,1.483,1.483C-222.34,745.62-223.005,746.285-223.823,746.285z"/>
				</g>
			</g>
			<g>
				<g>
					<path fill="#E04C50" d="M-231.406,746.285h-1.995c-0.819,0-1.483-0.664-1.483-1.483c0-0.819,0.664-1.483,1.483-1.483h1.995
						c0.819,0,1.483,0.664,1.483,1.483C-229.923,745.62-230.587,746.285-231.406,746.285z"/>
				</g>
			</g>
			<g>
				<g>
					<path fill="#E04C50" d="M-228.614,751.088c-0.819,0-1.483-0.664-1.483-1.483v-2.003c0-0.819,0.664-1.483,1.483-1.483
						s1.483,0.664,1.483,1.483v2.003C-227.131,750.424-227.795,751.088-228.614,751.088z"/>
				</g>
			</g>
			<g>
				<g>
					<path fill="#E04C50" d="M-228.614,743.49c-0.819,0-1.483-0.664-1.483-1.483v-2.003c0-0.819,0.664-1.483,1.483-1.483
						s1.483,0.664,1.483,1.483v2.003C-227.131,742.826-227.795,743.49-228.614,743.49z"/>
				</g>
			</g>
			<g>
				<g>
					<path fill="#E04C50" d="M-223.823,746.285h-1.995c-0.819,0-1.483-0.664-1.483-1.483c0-0.819,0.665-1.483,1.483-1.483h1.995
						c0.819,0,1.483,0.664,1.483,1.483C-222.34,745.62-223.005,746.285-223.823,746.285z"/>
				</g>
			</g>
			<g>
				<g>
					<path fill="#E04C50" d="M-231.406,746.285h-1.995c-0.819,0-1.483-0.664-1.483-1.483c0-0.819,0.664-1.483,1.483-1.483h1.995
						c0.819,0,1.483,0.664,1.483,1.483C-229.923,745.62-230.587,746.285-231.406,746.285z"/>
				</g>
			</g>
		</g>
		<g>
			<g>
				<g>
					<path fill="#E04C50" d="M-323.026,723.344h-1.618c-0.555,0-1.005-0.45-1.005-1.004c0-0.555,0.45-1.004,1.005-1.004h1.618
						c0.555,0,1.004,0.45,1.004,1.004C-322.021,722.894-322.471,723.344-323.026,723.344z"/>
				</g>
			</g>
			<g>
				<g>
					<path fill="#E04C50" d="M-329.582,723.344h-1.143c-0.554,0-1.004-0.45-1.004-1.004c0-0.555,0.45-1.004,1.004-1.004h1.143
						c0.555,0,1.005,0.45,1.005,1.004C-328.578,722.894-329.028,723.344-329.582,723.344z"/>
				</g>
			</g>
			<g>
				<g>
					<path fill="#E04C50" d="M-326.813,721.792c-0.554,0-1.004-0.45-1.004-1.005v-1.622c0-0.554,0.45-1.004,1.004-1.004
						c0.555,0,1.004,0.45,1.004,1.004v1.622C-325.809,721.342-326.258,721.792-326.813,721.792z"/>
				</g>
			</g>
			<g>
				<g>
					<path fill="#E04C50" d="M-324.258,726.963c-0.257,0-0.514-0.098-0.71-0.294l-1.147-1.147c-0.392-0.392-0.392-1.029,0-1.421
						c0.393-0.393,1.028-0.393,1.42,0l1.147,1.147c0.392,0.392,0.392,1.029,0,1.421
						C-323.743,726.865-324.001,726.963-324.258,726.963z"/>
				</g>
			</g>
			<g>
				<g>
					<path fill="#E04C50" d="M-329.374,726.963c-0.257,0-0.514-0.098-0.71-0.294c-0.392-0.392-0.392-1.029,0-1.421l1.147-1.147
						c0.393-0.393,1.028-0.393,1.421,0c0.392,0.392,0.392,1.029,0,1.421l-1.147,1.147
						C-328.86,726.865-329.117,726.963-329.374,726.963z"/>
				</g>
			</g>
		</g>
		<g>
			<circle fill="#F2B967" cx="-298.636" cy="765.869" r="2.506"/>
		</g>
		<g>
			<circle fill="#F2B967" cx="-244.305" cy="754.203" r="2.506"/>
		</g>
		<g>
			<circle fill="#DAD4A5" cx="-330.378" cy="737.089" r="2.506"/>
		</g>
	</g>
</g>
</svg>
